<svg width="1920" height="1002" viewBox="0 0 1920 1002" fill="none" xmlns="http://www.w3.org/2000/svg">
<path d="M0 544L968 427L1920 544V656L968 673L0 656V544Z" fill="white"/>
<path d="M1493 501C1493 777.109 1261.12 1001 975 1001C688.883 1001 457 777.109 457 501C457 224.891 688.883 1 975 1C1261.12 1 1493 224.891 1493 501Z" stroke="#1FD69A" stroke-opacity="0.5" stroke-width="2"/>
<path d="M1365 505C1365 709.297 1190.44 875 975 875C759.559 875 585 709.297 585 505C585 300.703 759.559 135 975 135C1190.44 135 1365 300.703 1365 505Z" stroke="#1FD69A" stroke-opacity="0.5" stroke-width="2"/>
<path d="M1241 510.5C1241 651.053 1126.61 765 985.5 765C844.388 765 730 651.053 730 510.5C730 369.947 844.388 256 985.5 256C1126.61 256 1241 369.947 1241 510.5Z" stroke="#0F755B" stroke-opacity="0.5" stroke-width="2"/>
</svg>
